<svg xmlns="http://www.w3.org/2000/svg" width="1080" height="1080" viewBox="0 0 1080 1080" version="1.1"><path d="M 207.500 479.015 C 167.764 486.918, 145.828 526.901, 161.101 563.588 C 164.876 572.655, 172.039 582.245, 179.109 587.696 C 182.074 589.982, 207.450 605.074, 235.500 621.234 C 280.040 646.895, 379.361 704.200, 401 716.724 C 412.624 723.451, 420.318 725.495, 434 725.491 C 443.431 725.488, 446.759 725.063, 452.500 723.129 C 462.291 719.830, 472.938 712.989, 479.409 705.838 C 485.926 698.636, 492.392 686.027, 494.066 677.257 C 495.867 667.819, 494.803 650.919, 491.941 643.500 C 487.451 631.864, 479.765 621.720, 470 614.544 C 466.137 611.705, 390.718 567.927, 336.500 537.052 C 327.150 531.727, 303.503 518.118, 283.952 506.809 C 264.400 495.499, 246.521 485.286, 244.221 484.113 C 234.720 479.266, 217.946 476.937, 207.500 479.015" stroke="none" fill="#4285f4" fill-rule="evenodd"/><path d="M 645.768 353.725 C 647.565 353.947, 650.265 353.943, 651.768 353.715 C 653.271 353.486, 651.800 353.304, 648.500 353.310 C 645.200 353.315, 643.971 353.502, 645.768 353.725 M 720.500 551.164 C 695.435 565.775, 700.226 563.003, 660 586.165 C 640.475 597.408, 621.800 608.127, 618.500 609.985 C 609.924 614.813, 598.245 626.894, 593.723 635.613 C 587.310 647.981, 585.166 663.545, 587.954 677.506 C 589.682 686.164, 596.196 698.770, 602.591 705.838 C 608.895 712.804, 619.568 719.812, 629 723.180 C 634.566 725.167, 637.368 725.494, 648.500 725.458 C 659.595 725.423, 662.445 725.072, 667.950 723.061 C 673.763 720.939, 690.495 711.645, 737 684.710 C 745.525 679.773, 754.075 674.840, 756 673.748 C 757.925 672.656, 763.550 669.389, 768.500 666.490 C 777.243 661.368, 824.133 634.325, 874.232 605.513 C 882.827 600.570, 889.774 596.441, 889.670 596.337 C 889.566 596.233, 886.785 597.122, 883.491 598.313 C 874.603 601.525, 854.297 601.467, 844.853 598.203 C 841.197 596.939, 823.647 587.472, 805.853 577.165 C 757.139 548.946, 741.352 539.995, 740.380 540.044 C 739.896 540.068, 730.950 545.072, 720.500 551.164" stroke="none" fill="#fbbc04" fill-rule="evenodd"/><path d="M 633.725 355.506 C 600.784 363.827, 580.592 397.623, 588.975 430.404 C 594.076 450.348, 605.859 462.829, 633.499 477.567 C 634.600 478.154, 645.625 484.500, 658 491.670 C 670.375 498.840, 691.300 510.912, 704.500 518.497 C 717.700 526.082, 734.800 535.989, 742.500 540.512 C 791.890 569.523, 838.171 595.683, 843.856 597.801 C 852.857 601.155, 869.546 601.974, 879 599.526 C 899.641 594.181, 915.916 578.875, 922.626 558.500 C 926.221 547.587, 926.409 531.752, 923.061 522 C 919.289 511.016, 914.922 503.895, 907.418 496.500 C 901.398 490.567, 896.442 487.276, 874.908 474.911 C 860.933 466.888, 824.300 445.773, 793.500 427.990 C 686.666 366.307, 674.135 359.229, 667.834 357.008 C 659.634 354.119, 642.248 353.353, 633.725 355.506" stroke="none" fill="#0f9d58" fill-rule="evenodd"/><path d="M 419 355.548 C 410.069 358.043, 405.650 360.400, 354.927 389.720 C 283.166 431.200, 258.692 445.334, 225.793 464.297 C 209.454 473.714, 196.218 481.551, 196.378 481.712 C 196.539 481.872, 198.882 481.317, 201.585 480.478 C 210.406 477.740, 221.425 477.514, 231.256 479.868 C 241.983 482.437, 240.506 481.683, 283.952 506.789 C 303.503 518.087, 324.048 529.956, 329.607 533.165 C 335.166 536.374, 340.341 538.998, 341.107 538.996 C 341.873 538.994, 344.075 538.027, 346 536.846 C 347.925 535.666, 370.200 522.779, 395.500 508.210 C 475.946 461.884, 470.801 465.026, 477.500 458.129 C 488.276 447.034, 493.878 433.971, 494.708 418 C 496.135 390.571, 479.911 366.476, 453.807 357.259 C 444.513 353.977, 427.599 353.146, 419 355.548" stroke="none" fill="#ea4335" fill-rule="evenodd"/></svg>